<?xml version="1.0" standalone="no"?>
<!DOCTYPE svg PUBLIC "-//W3C//DTD SVG 1.1//EN" "http://www.w3.org/Graphics/SVG/1.1/DTD/svg11.dtd" >
<svg xmlns="http://www.w3.org/2000/svg">
<metadata>Generated by IcoMoon</metadata>
<defs>
<font id="iconfont" horiz-adv-x="1024">
<font-face units-per-em="1024" ascent="896" descent="-128" />
<missing-glyph horiz-adv-x="1024" />
<glyph unicode="&#x20;" horiz-adv-x="0" d="" />
<glyph unicode="&#xe600;" glyph-name="guanbi" d="M534.624 300l372.688 372.688c6.256 6.256 6.256 16.368 0 22.624s-16.368 6.256-22.624 0l-372.688-372.688-372.688 372.688c-6.256 6.256-16.368 6.256-22.624 0s-6.256-16.368 0-22.624l372.688-372.688-372.688-372.688c-6.256-6.256-6.256-16.368 0-22.624 3.12-3.12 7.216-4.688 11.312-4.688s8.192 1.568 11.312 4.688l372.688 372.688 372.688-372.688c3.12-3.12 7.216-4.688 11.312-4.688s8.192 1.568 11.312 4.688c6.256 6.256 6.256 16.368 0 22.624l-372.688 372.688z" />
<glyph unicode="&#xe601;" glyph-name="jiantou-s-r" d="M393.473 706.753l341.695-322.14-341.653-323.403-21.020 22.2 318.189 301.16-318.149 299.98z" />
<glyph unicode="&#xe602;" glyph-name="zuojiantou" d="M670.976 64l-338.816 319.36 338.816 320.64 20.864-22.016-315.52-298.624 315.392-297.344-20.736-22.016zM670.976 64" />
<glyph unicode="&#xe603;" glyph-name="sousuo" d="M961.22-104.316l-272.369 272.37c53.47 62.217 86.012 142.891 86.012 231.169 0 195.973-159.428 355.401-355.401 355.401s-355.401-159.428-355.401-355.401c0-195.973 159.428-355.401 355.401-355.401 77.602 0 149.22 25.276 207.732 67.638l274.901-274.901 59.125 59.125zM105.873 399.223c0 172.915 140.686 313.589 313.589 313.589s313.589-140.674 313.589-313.589c0-172.913-140.687-313.589-313.589-313.589-172.903 0-313.589 140.676-313.589 313.589z" />
<glyph unicode="&#xe604;" glyph-name="dingwei" d="M512.79-224.767c0 0-356.822 455.293-356.822 650.463 0 195.136 159.771 353.334 356.822 353.334 197.034 0 356.795-158.179 356.795-353.334-0.002-195.177-356.795-650.463-356.795-650.463v0zM509.088 576.059c-83.867 0-151.883-67.339-151.883-150.439 0-83.054 68.005-150.395 151.883-150.395 83.913 0 151.899 67.339 151.899 150.395 0 83.077-67.981 150.439-151.899 150.439v0z" />
<glyph unicode="&#xe605;" glyph-name="xiajiantou" d="M133.404 546.892l365.132-352.616c1.233-1.138 2.56-2.086 3.982-2.939 7.206-4.361 16.593-3.508 22.945 2.56l365.132 352.616c7.68 7.396 7.775 19.816 0 27.307-7.396 7.206-19.342 6.827-26.738-0.379l-351.763-339.627c0 0 0 0-0.095 0l-351.953 340.006c-7.396 7.206-19.342 7.49-26.738 0.379-7.68-7.49-7.585-19.911 0.095-27.307z" />
<glyph unicode="&#xe606;" glyph-name="shangjiantou" d="M890.596 221.108l-365.132 352.616c-1.233 1.138-2.56 2.086-3.982 2.939-7.206 4.361-16.593 3.508-22.945-2.56l-365.132-352.711c-7.68-7.396-7.775-19.816 0-27.307 7.396-7.206 19.342-6.827 26.738 0.379l351.763 339.627c0 0 0 0 0.095 0l352.047-340.006c7.396-7.206 19.342-7.49 26.738-0.379 7.585 7.585 7.49 20.006-0.19 27.401z" />
<glyph unicode="&#xe607;" glyph-name="gouwuche" d="M995.107 662.25c-6.928 9.035-17.679 14.321-29.036 14.321h-767l-32.214 153.787c-3.535 16.927-18.463 29.071-35.785 29.071h-94.501c-20.213 0-36.571-16.357-36.571-36.571s16.357-36.571 36.571-36.571h64.786l139.429-665.787c3.536-16.929 18.465-29.071 35.785-29.071h550.857c20.215 0 36.571 16.357 36.571 36.571s-16.357 36.571-36.571 36.571h-521.143l-22.965 109.714h594.394c16.536 0 31.036 11.107 35.321 27.107l88.357 329.143c2.966 10.964 0.609 22.715-6.285 31.715zM849.679 347.429h-581.678l-53.606 256h704l-68.716-256zM347.429 54.857c-50.428 0-91.429-41-91.429-91.429s41-91.429 91.429-91.429 91.429 41 91.429 91.429-41 91.429-91.429 91.429zM347.429-73.143c-20.178 0-36.571 16.393-36.571 36.571s16.393 36.571 36.571 36.571 36.571-16.393 36.571-36.571-16.393-36.571-36.571-36.571zM749.714 54.857c-50.428 0-91.429-41-91.429-91.429s41-91.429 91.429-91.429 91.429 41 91.429 91.429-41 91.429-91.429 91.429zM749.714-73.143c-20.178 0-36.571 16.393-36.571 36.571s16.393 36.571 36.571 36.571 36.571-16.393 36.571-36.571-16.393-36.571-36.571-36.571z" />
<glyph unicode="&#xe608;" glyph-name="app" d="M878.159 330.594h-327.397c-11.308 0-20.466-9.169-20.466-20.466v-327.397c0-11.308 9.159-20.466 20.466-20.466h327.397c11.297 0 20.466 9.159 20.466 20.466v327.397c0 11.297-9.169 20.466-20.466 20.466zM857.693 3.197h-286.464v286.464h286.464v-286.464zM430.606 330.594h-327.397c-11.297 0-20.466-9.169-20.466-20.466v-327.397c0-11.308 9.169-20.466 20.466-20.466h327.397c11.308 0 20.466 9.159 20.466 20.466v327.397c0 11.297-9.159 20.466-20.466 20.466zM410.14 3.197h-286.464v286.464h286.464v-286.464zM430.606 780.398h-327.397c-11.297 0-20.466-9.159-20.466-20.466v-327.386c0-11.308 9.169-20.466 20.466-20.466h327.397c11.308 0 20.466 9.159 20.466 20.466v327.386c0 11.308-9.159 20.466-20.466 20.466zM410.14 453.012h-286.464v286.454h286.464v-286.454zM965.529 618.255l-214.434 214.434c-3.837 3.837-9.046 5.997-14.47 5.997-5.434 0-10.632-2.159-14.48-5.997l-214.434-214.434c-7.992-7.992-7.992-20.957 0-28.949l214.434-214.434c4.001-3.991 9.24-5.997 14.48-5.997 5.229 0 10.468 2.006 14.47 5.997l214.434 214.434c3.837 3.837 5.997 9.046 5.997 14.47 0 5.434-2.159 10.642-5.997 14.48zM736.626 418.291l-185.495 185.484 185.495 185.495 185.484-185.495-185.484-185.484z" />
<glyph unicode="&#xe609;" glyph-name="cart" d="M979.904 588.736h-717.024l-57.888 238.848h-160.864v-34.112h134.016l166.336-686.176c-35.456-10.336-61.536-42.688-61.536-81.504 0-47.104 38.176-85.312 85.312-85.312s85.312 38.208 85.312 85.312c0 19.296-6.656 36.896-17.44 51.168h239.584c-10.784-14.272-17.44-31.904-17.44-51.168 0-47.104 38.176-85.312 85.28-85.312s85.312 38.208 85.312 85.312c0 47.136-38.176 85.28-85.312 85.312v0h-364.896l-16.544 68.256h478.976l138.784 409.44zM419.424 25.728c0-28.224-22.944-51.168-51.168-51.168s-51.168 22.944-51.168 51.168c0 28.224 22.944 51.168 51.168 51.168s51.168-22.976 51.168-51.168zM794.752 25.728c0-28.224-22.976-51.168-51.2-51.168s-51.168 22.944-51.168 51.168c0 28.224 22.944 51.168 51.168 51.168s51.2-22.976 51.2-51.168zM353.856 213.408l-82.72 341.184h661.184l-115.68-341.184h-462.784z" />
<glyph unicode="&#xe60a;" glyph-name="shouye-1" d="M770.75-89.423c-13.083 0-22.095 1.594-23.026 1.766l6.448 35.141c0.44-0.081 44.255-7.553 72.565 16.151 17.157 14.374 25.861 38.186 25.861 70.782v114.868l0.792 267.036 122.508 0.076c3.475 0 6.755 1.502 8.993 4.124 1.828 2.172 2.739 5.038 2.482 7.961-0.264 2.941-1.683 5.625-3.997 7.54l-460.408 380.654c-4.23 3.745-10.748 3.851-15.158 0.244l-465.543-380.502c-2.904-2.13-4.563-5.372-4.563-8.898 0-4.135 7.191-8.044 14.8-8.044h121.574l-0.026-375.762c0-48.069 39.736-87.179 88.59-87.179h311.375c48.855 0 88.591 39.11 88.591 87.179l0.025 216.127c0 48.051-39.742 87.146-88.592 87.146h-126.889c-48.841 0-88.579-39.096-88.579-87.146v-93.972h-35.727v93.972c0 67.752 55.762 122.866 124.306 122.866h126.888c68.545 0 124.312-55.114 124.312-122.866v-186.842h-0.019v-29.285c0-67.771-55.767-122.899-124.317-122.899h-311.38c-68.545 0-124.312 55.128-124.312 122.899l0.026 340.041h-85.853c-24.828 0-50.519 16.372-50.519 43.765 0 14.617 6.989 28.55 18.715 37.381l464.511 379.684c17.749 14.498 43.992 14.072 61.198-0.948l459.761-380.101c9.722-8.064 15.674-19.375 16.793-31.876 1.113-12.479-2.733-24.647-10.834-34.26-9.074-10.609-22.153-16.662-36.003-16.725l-3.789-0.082h-83.325l-0.685-231.359v-114.817c0-43.809-13.084-76.907-38.9-98.376-25.566-21.266-57.471-25.463-78.67-25.463zM770.75-89.423" />
<glyph unicode="&#xe60b;" glyph-name="fangdajing" d="M844.8 7.68l-189.44 189.44-17.92-12.8c-110.080-76.8-256-76.8-366.080 0-69.12 48.64-115.2 120.32-128 204.8-12.8 81.92 5.12 166.4 53.76 235.52 99.84 140.8 299.52 174.080 440.32 74.24 69.12-48.64 115.2-120.32 128-204.8 12.8-81.92-5.12-166.4-53.76-235.52l-12.8-17.92 189.44-189.44-43.52-43.52zM455.68 693.76c-79.36 0-156.16-35.84-207.36-107.52-38.4-56.32-53.76-122.88-43.52-189.44s48.64-125.44 102.4-163.84c87.040-61.44 204.8-61.44 294.4 0l35.84 25.6 25.6 35.84c38.4 56.32 53.76 122.88 43.52 189.44s-48.64 125.44-102.4 163.84c-46.080 30.72-97.28 46.080-148.48 46.080z" />
<glyph unicode="&#xe60c;" glyph-name="gouwuche1" d="M918.528 665.6h-538.112l-4.096-95.744h474.624l-68.096-254.976-491.008-0.512 0.512 485.888c0 25.088-19.968 45.568-45.056 45.568h-186.88v-90.112h135.68v-542.208h666.624c4.608 16.896 7.68 28.672 9.216 34.816l90.112 361.472c1.024 3.584 1.536 7.168 1.536 10.752 0 25.088-19.968 45.056-45.056 45.056zM286.208 123.392c-49.664-0.512-90.112-40.448-90.112-90.112s40.448-90.112 90.112-90.112c49.664 0 90.112 40.448 90.112 90.112s-40.448 90.112-90.112 90.112zM782.848 122.88c-49.664 0-90.112-40.448-90.112-90.112s40.448-90.112 90.112-90.112 90.112 40.448 90.112 90.112-40.448 90.112-90.112 90.112z" />
<glyph unicode="&#xe60d;" glyph-name="jiantou" d="M631.967 353.511l-161.061-165.038c-15.244-15.907-41.094-15.907-56.338-0.663-15.907 15.907-15.907 41.094 0 57.001l137.863 141.177-138.526 136.538c-15.907 15.907-15.907 41.094 0 57.001s41.094 15.907 57.001 0l166.364-164.375c15.907-15.907 15.907-41.094 0-57.001-1.988-1.326-3.977-3.314-5.302-4.64z" />
<glyph unicode="&#xe60e;" glyph-name="xiangji" d="M856.064 603.136h-114.688c-18.432 0-34.816 10.24-43.008 26.624l-21.504 43.008c-8.192 16.384-24.576 26.624-43.008 26.624h-228.864c-18.432 0-34.816-10.24-43.008-26.624l-21.504-43.008c-8.192-16.384-24.576-26.624-43.008-26.624h-114.176c-26.624 0-48.128-21.504-48.128-48.128v-432.64c0-26.624 21.504-48.128 48.128-48.128h673.28c26.624 0 48.128 21.504 48.128 48.128v432.64c-0.512 26.624-22.016 48.128-48.64 48.128zM856.064 169.984c0-26.624-21.504-48.128-48.128-48.128h-577.024c-26.624 0-48.128 21.504-48.128 48.128v336.896c0 26.624 21.504 48.128 48.128 48.128h90.624c18.432 0 34.816 10.24 43.008 26.624l21.504 43.008c8.192 16.384 24.576 26.624 43.008 26.624h181.248c18.432 0 34.816-10.24 43.008-26.624l21.504-43.008c8.192-16.384 24.576-26.624 43.008-26.624h90.624c26.624 0 48.128-21.504 48.128-48.128v-336.896zM519.68 555.008c-105.984 0-192.512-86.528-192.512-192.512s86.528-192.512 192.512-192.512c105.984 0 192.512 86.016 192.512 192.512 0 105.984-86.528 192.512-192.512 192.512zM519.68 218.112c-79.36 0-144.384 64.512-144.384 144.384s65.024 144.384 144.384 144.384 144.384-64.512 144.384-144.384-65.024-144.384-144.384-144.384z" />
<glyph unicode="&#xe60f;" glyph-name="shangjiantou1" d="M555.745 532.715l165.038-161.061c15.907-15.244 15.907-41.094 0.663-56.338-15.907-15.907-41.094-15.907-57.001 0l-141.177 137.863-136.538-138.526c-15.907-15.907-41.094-15.907-57.001 0s-15.907 41.094 0 57.001l164.375 166.364c15.907 15.907 41.094 15.907 57.001 0 1.326-1.988 3.314-3.977 4.64-5.302z" />
<glyph unicode="&#xe610;" glyph-name="xiajiantou1" d="M551.105 327.22c-15.907-15.907-41.094-15.907-57.001 0l-164.375 166.364c-15.907 15.907-15.907 41.094 0 57.001s41.094 15.907 57.001 0l136.538-138.526 141.177 137.863c15.907 15.907 41.094 15.907 57.001 0 15.244-15.244 15.244-41.094-0.663-56.338l-165.038-161.061c-1.326-1.326-3.314-3.314-4.64-5.302z" />
<glyph unicode="&#xe611;" glyph-name="zuojiantou1" d="M413.905 358.151c-15.907 15.907-15.907 41.094 0 57.001l166.364 164.375c15.907 15.907 41.094 15.907 57.001 0s15.907-41.094 0-57.001l-138.526-136.538 137.863-141.177c15.907-15.907 15.907-41.094 0-57.001-15.244-15.244-41.094-15.244-56.338 0.663l-161.061 165.038c-1.326 1.326-3.314 3.314-5.302 4.64z" />
<glyph unicode="&#xe635;" glyph-name="fenlei" d="M455.212 363.21c56.378-110.245 191.453-153.914 301.699-97.536s153.914 191.454 97.536 301.7c-56.378 110.245-191.453 153.914-301.699 97.536s-153.914-191.454-97.536-301.7zM570.584 630.031c90.983 46.528 202.458 10.49 248.985-80.494s10.489-202.457-80.494-248.985-202.458-10.488-248.985 80.495c-46.528 90.983-10.489 202.458 80.494 248.984zM879.092 94.281l-63.352 123.883c-6.982 13.654-23.711 19.062-37.366 12.080l-6.445-3.296c-13.654-6.982-19.062-23.712-12.080-37.366l63.351-123.882c6.983-13.654 23.713-19.063 37.367-12.080l6.445 3.295c13.654 6.984 19.063 23.713 12.080 37.367zM134.302 644.398h302.591c12.177 0 22.048 9.87 22.048 22.047s-9.871 22.047-22.048 22.047h-302.591c-12.177 0-22.047-9.87-22.047-22.047s9.87-22.047 22.047-22.047zM134.302 446.687h224.027c12.176 0 22.047 9.87 22.047 22.047s-9.87 22.047-22.047 22.047h-224.027c-12.177 0-22.047-9.87-22.047-22.047s9.87-22.047 22.047-22.047zM134.302 248.976h288.988c12.176 0 22.047 9.87 22.047 22.047s-9.871 22.047-22.047 22.047h-288.988c-12.177 0-22.047-9.87-22.047-22.047-0.001-12.175 9.87-22.047 22.047-22.047zM729.027 93.57h-596.515c-11.189 0-20.258-9.070-20.258-20.258s9.070-20.258 20.258-20.258h596.515c11.189 0 20.258 9.070 20.258 20.258s-9.070 20.258-20.258 20.258z" />
<glyph unicode="&#xe639;" glyph-name="daohanglan-05" horiz-adv-x="1079" d="M561.57 291.703c134.127 0 243.251 109.261 243.251 243.567s-109.132 243.567-243.251 243.567c-134.135 0-243.26-109.269-243.26-243.567s109.124-243.567 243.26-243.567zM561.57 736.17c110.601 0 200.585-90.129 200.585-200.9s-89.984-200.9-200.585-200.9c-110.609 0-200.593 90.129-200.593 200.9s89.984 200.9 200.593 200.9zM923.401 155.554c-8.823 52.676-137.89 154.163-177.775 183.979-5.999 4.48-24.32 8.644-32.802 0.973-11.75-10.624-71.501-63.522-152.004-63.522-50.551 0-100.864 19.84-147.729 61.235-7.424 6.554-20.813 13.585-36.557 0.111-27.904-23.885-135.646-116.523-167.125-170.769-25.762-44.416-16.529-104.243-0.794-141.969 14.046-33.69 35.123-56.405 57.805-62.319 10.138-2.662 38.707-5.692 170.761-5.692 165.845 0 397.508 5.035 399.821 5.086l1.98 0.154c1.468 0.188 36.216 5.077 62.012 39.876 26.010 35.063 33.536 86.502 22.409 152.858zM871.894 25.472c-14.737-20.412-33.306-25.114-37.018-25.882-19.166-0.41-238.797-5.052-397.687-5.052-130.193 0-156.254 3.14-161.417 4.48-8.294 2.159-21.922 14.131-33.033 40.789-13.474 32.282-19.106 78.575-1.357 109.193 26.488 45.653 120.090 127.804 153.421 156.297 52.71-43.332 108.484-65.28 166.016-65.28 81.63 0 143.351 44.177 168.414 65.544 66.406-50.833 152.9-127.411 157.696-156.1 9.19-54.724 3.985-97.613-15.036-123.989z" />
<glyph unicode="&#xe6f9;" glyph-name="dianhua" d="M912 152.2c0-10.3-1.9-23.6-5.7-40-3.8-16.5-7.8-29.4-11.9-38.9-8-19-31.1-39-69.4-60.2-35.5-19.3-70.7-28.9-105.7-28.9-10.3 0-20.4 0.6-30.1 2.1-9.8 1.3-20.8 3.7-32.6 7.1-11.9 3.4-20.8 6.2-26.7 8.2-5.8 2.1-16.4 6.1-31.6 11.6-15.1 5.7-24.4 9.1-27.8 10.3-37.1 13.3-70.3 28.9-99.4 47.2-48.2 29.8-98.1 70.9-150 122.7-51.8 51.8-92.8 102-122.7 150-18.2 29.1-34 62.3-47.2 99.4-1.2 3.4-4.5 12.7-10.3 27.8s-9.6 25.7-11.6 31.6c-2.1 5.8-4.7 14.8-8.2 26.7-3.4 11.9-5.7 22.8-7.1 32.6s-2.1 19.9-2.1 30.1c0 34.9 9.7 70.1 28.9 105.7 21.2 38.2 41.2 61.4 60.2 69.4 9.5 4.1 22.4 8.1 38.9 11.9s29.8 5.7 40 5.7c5.2 0 9.4-0.6 11.9-1.6 6.9-2.3 16.8-16.7 30.1-43.2 4.1-7.2 9.8-17.4 17.1-30.8 7.2-13.3 13.9-25.3 19.9-36.1 6.2-10.8 11.9-20.9 17.5-30.4 1.2-1.5 4.4-6.3 10-14.2 5.5-8 9.6-14.7 12.1-20.3 2.6-5.5 3.9-10.9 3.9-16.3 0-7.6-5.4-17.1-16.3-28.4-10.8-11.3-22.6-21.8-35.3-31.4-12.7-9.5-24.4-19.5-35.3-30.1-10.8-10.6-16.3-19.3-16.3-26.1 0-3.4 0.9-7.7 2.9-12.8 1.9-5.1 3.4-9 4.7-11.6s3.9-7.2 8-13.6c3.9-6.5 6.2-10.1 6.6-10.8 28.7-51.9 61.7-96.4 98.8-133.5s81.6-70.1 133.5-98.8c0.7-0.3 4.2-2.5 10.8-6.6 6.5-3.9 11-6.6 13.6-8 2.6-1.3 6.6-3 11.6-4.7 5.1-1.9 9.4-2.9 12.8-2.9 6.9 0 15.5 5.4 26.1 16.3 10.6 10.8 20.7 22.6 30.1 35.3 9.5 12.7 19.9 24.4 31.4 35.3s20.8 16.3 28.4 16.3c5.2 0 10.8-1.3 16.3-3.9s12.1-6.7 20.3-12.1c8-5.5 12.7-8.8 14.2-10 9.5-5.7 19.7-11.6 30.4-17.5 10.8-6.2 22.8-12.7 36.1-19.9s23.6-12.9 30.8-17.1c26.5-13.3 40.9-23.3 43.2-30.1 1.6-3.2 2.2-7.3 2.2-12.5z" />
<glyph unicode="&#xe7ee;" glyph-name="hunli-" d="M805.6-28.8h-168c-6.4 0-11.2 3.2-14.4 8.8-2.4 5.6-2.4 12 1.6 16.8l84 112.8c6.4 8 20 8 25.6 0l84-112.8c4-4.8 4-11.2 1.6-16.8-3.2-5.6-8.8-8.8-14.4-8.8zM669.6 3.2h104l-52 70.4-52-70.4zM364.8 77.6c-203.2 0-360.8 252-360.8 468.8 0 107.2 36.8 196 106.4 257.6 64 56.8 154.4 88 254.4 88s190.4-31.2 254.4-88c69.6-61.6 106.4-150.4 106.4-257.6 0-216.8-157.6-468.8-360.8-468.8zM364.8 860c-200 0-328.8-123.2-328.8-313.6 0-202.4 144-436.8 328.8-436.8s328.8 235.2 328.8 436.8c0 190.4-128.8 313.6-328.8 313.6zM721.6 84c-63.2 0-124 28.8-176.8 83.2-3.2 3.2-4.8 7.2-4.8 11.2s1.6 8 4.8 11.2c90.4 86.4 148.8 226.4 148.8 356.8 0 69.6-16.8 129.6-48.8 179.2-3.2 4.8-3.2 10.4-1.6 15.2 2.4 4.8 6.4 8.8 12 9.6 21.6 4 43.2 5.6 65.6 5.6 178.4 0 298.4-115.2 298.4-285.6 0.8-178.4-129.6-386.4-297.6-386.4zM578.4 178.4c44-40.8 92.8-62.4 143.2-62.4 150.4 0 266.4 190.4 266.4 355.2 0 154.4-104.8 253.6-266.4 253.6-12.8 0-24.8-0.8-36.8-1.6 27.2-50.4 41.6-109.6 41.6-176-0.8-133.6-57.6-276.8-148-368.8zM940 462.4c-4.8 0-8 3.2-8 8 0 158.4-124 189.6-176.8 196-4 0.8-7.2 4.8-7.2 8.8 0.8 4 4.8 7.2 8.8 7.2 119.2-13.6 191.2-92.8 191.2-212 0-4-3.2-8-8-8zM617.6 527.2c-4.8 0-8 3.2-8 8 0 141.6-96 233.6-244.8 233.6-4.8 0-8 3.2-8 8s3.2 8 8 8c158.4 0 260.8-97.6 260.8-249.6 0-4.8-3.2-8-8-8zM467.2-40.8h-204.8c-6.4 0-12 4-14.4 9.6s-1.6 12 2.4 16.8l102.4 118.4c6.4 7.2 18.4 7.2 24 0l102.4-118.4c4-4.8 4.8-11.2 2.4-16.8s-8-9.6-14.4-9.6zM297.6-8.8h134.4l-67.2 78.4-67.2-78.4zM584.8-124c-0.8 0-2.4 0-3.2 0.8-8.8 1.6-14.4 10.4-12 19.2 5.6 25.6-12.8 52.8-32 76.8-17.6 22.4-37.6 44.8-61.6 62.4-17.6 12.8-46.4 28.8-80 31.2-8.8 0.8-15.2 8-15.2 16.8s8 15.2 16.8 15.2c41.6-2.4 76-21.6 97.6-37.6 27.2-20 48.8-44.8 68-68 24-29.6 47.2-65.6 38.4-104-2.4-8-9.6-12.8-16.8-12.8zM949.6-124c-0.8 0-2.4 0-3.2 0.8-8.8 1.6-14.4 10.4-12 19.2 5.6 25.6-12.8 52.8-32 76.8-17.6 22.4-37.6 44.8-61.6 62.4-17.6 12.8-46.4 28.8-80 31.2-8.8 0.8-15.2 8-15.2 16.8s8 15.2 16.8 15.2c41.6-2.4 76-21.6 97.6-37.6 27.2-20 48.8-44.8 68-68 24-29.6 47.2-65.6 38.4-104-3.2-8-9.6-12.8-16.8-12.8z" />
</font>
</defs>
</svg>
